<svg width="741" height="325" viewBox="0 0 741 325" fill="none" xmlns="http://www.w3.org/2000/svg">
<path d="M5.58798 91.7611C5.93504 91.762 6.28214 91.7829 6.62682 91.8235C6.51229 92.0937 6.32188 92.3247 6.07856 92.4888C5.83524 92.6528 5.54928 92.7428 5.25586 92.7477C5.32373 92.4059 5.43524 92.0743 5.58798 91.7611Z" fill="#002745"/>
<path d="M3.37598 93.9523L3.52112 93.0488C3.81875 93.0677 4.11435 93.1129 4.40404 93.1838L3.37598 93.9523Z" fill="#002745"/>
<path d="M2.23351 94.0352C2.57922 94.0104 2.92664 94.0104 3.27235 94.0352C3.15344 94.3232 2.95175 94.5698 2.69303 94.7435C2.43431 94.9172 2.12999 95.0106 1.81836 95.0116C1.89295 94.6626 2.03374 94.3309 2.23351 94.0352Z" fill="#002745"/>
<path d="M0.000976562 96.289C0.000976562 95.9774 0.0941992 95.666 0.146122 95.3648C0.456589 95.3731 0.765673 95.4076 1.07024 95.4684L0.000976562 96.289Z" fill="#002745"/>
<path d="M97.4083 143.644H72.7861C71.2989 143.644 69.8726 143.053 68.8209 142.002C67.7693 140.95 67.1787 139.524 67.1787 138.036C67.1787 136.549 67.7693 135.123 68.8209 134.071C69.8726 133.019 71.2989 132.429 72.7861 132.429H97.4083C98.8955 132.429 100.322 133.019 101.373 134.071C102.425 135.123 103.016 136.549 103.016 138.036C103.016 139.524 102.425 140.95 101.373 142.002C100.322 143.053 98.8955 143.644 97.4083 143.644Z" fill="#1C8067"/>
<path d="M204.743 126.291H266.853C303.115 126.291 325.006 148.297 325.006 180.646V181.092C325.006 217.71 297.643 236.351 263.55 236.351H238.14V248.927C238.29 257.948 234.851 266.659 228.581 273.146C222.311 279.632 213.721 283.363 204.701 283.519L204.743 126.291ZM264.672 205.58C268.015 205.949 271.399 205.607 274.6 204.577C277.802 203.548 280.75 201.854 283.252 199.606C285.754 197.358 287.753 194.607 289.118 191.533C290.483 188.459 291.184 185.131 291.174 181.767V181.321C291.174 165.816 280.789 157.508 264.028 157.508H238.181V205.58H264.672Z" fill="#062140"/>
<path d="M338.236 119.551H372.983V149.875H338.236V119.551ZM339.108 163.168H372.111V283.561H339.108V163.168Z" fill="#062140"/>
<path d="M391.654 119.551H424.667V283.519H391.654V119.551Z" fill="#062140"/>
<path d="M445.052 119.551H478.054V283.519H445.052V119.551Z" fill="#062140"/>
<path d="M495.043 241.066V163.127H528.056V230.286C528.056 246.456 535.221 254.763 548.036 254.763C560.85 254.763 568.66 246.456 568.66 230.286V163.127H601.672V283.519H568.66V266.446C565.026 272.243 560.007 277.043 554.055 280.415C548.103 283.787 541.406 285.625 534.567 285.762C509.416 285.762 495.043 268.918 495.043 241.066Z" fill="#1C8067"/>
<path d="M618.744 163.127H651.746V180.418C655.577 174.294 660.936 169.272 667.296 165.847C673.656 162.422 680.798 160.712 688.019 160.883C715.164 160.883 740.981 182.889 740.981 223.1V223.546C740.981 263.757 715.569 285.762 688.019 285.762C680.979 285.872 674.015 284.299 667.706 281.174C661.397 278.049 655.925 273.463 651.746 267.797V285.316C651.896 294.22 648.504 302.819 642.315 309.222C636.126 315.626 627.648 319.309 618.744 319.461V163.127ZM707.989 223.546V223.1C708.389 219.033 707.963 214.928 706.736 211.031C705.509 207.134 703.507 203.525 700.85 200.421C698.193 197.317 694.937 194.782 691.276 192.968C687.614 191.155 683.625 190.1 679.545 189.868C664.124 189.868 651.32 203.119 651.32 223.1V223.546C651.32 243.537 664.124 256.778 679.545 256.778C683.631 256.565 687.631 255.522 691.301 253.715C694.971 251.908 698.236 249.373 700.896 246.264C703.557 243.156 705.557 239.539 706.776 235.634C707.996 231.728 708.408 227.616 707.989 223.546Z" fill="#1C8067"/>
<path d="M145.271 25.7751C137.508 17.6298 128.171 11.1455 117.828 6.71497C107.484 2.28444 96.3492 0 85.0971 0C73.8449 0 62.7104 2.28444 52.3671 6.71497C42.0238 11.1455 32.6872 17.6298 24.9238 25.7751C8.81881 42.4771 -0.124112 64.8102 0.00130146 88.0122V235.977C-0.124112 259.179 8.81881 281.512 24.9238 298.214C32.6834 306.366 42.0182 312.856 52.362 317.291C62.7058 321.726 73.8427 324.012 85.0971 324.012C96.3514 324.012 107.488 321.726 117.832 317.291C128.176 312.856 137.511 306.366 145.271 298.214C161.376 281.512 170.319 259.179 170.193 235.977V88.0122C170.319 64.8102 161.376 42.4771 145.271 25.7751ZM127.502 208.021L89.1839 250.713C89.0912 250.811 88.9899 250.902 88.8822 250.983C88.7838 251.086 88.6801 251.183 88.571 251.274C88.4146 251.387 88.2517 251.491 88.083 251.586C87.9688 251.648 87.8651 251.72 87.7509 251.772C87.5524 251.86 87.3474 251.933 87.138 251.991L86.868 252.074C86.5614 252.144 86.2475 252.178 85.9331 252.177C85.6751 252.179 85.4179 252.155 85.1649 252.105L84.9259 252.042C84.7534 252.005 84.5833 251.956 84.417 251.897C84.3131 251.897 84.2305 251.814 84.1267 251.772L83.7007 251.544C83.6026 251.485 83.5085 251.419 83.42 251.347C83.3288 251.295 83.2423 251.236 83.1607 251.17L58.5906 230.816C57.6693 230.037 57.0836 228.933 56.956 227.734C56.8283 226.535 57.1686 225.332 57.9054 224.377C58.2578 223.908 58.702 223.515 59.2111 223.223C59.7202 222.931 60.2836 222.746 60.8667 222.679C61.4497 222.612 62.0406 222.664 62.6027 222.833C63.1648 223.002 63.6862 223.283 64.1359 223.661L85.4869 241.315L121.012 201.738C121.399 201.302 121.87 200.95 122.397 200.701C122.924 200.452 123.494 200.312 124.077 200.29C124.659 200.267 125.239 200.363 125.783 200.571C126.328 200.779 126.824 201.094 127.243 201.499C128.126 202.339 128.647 203.49 128.696 204.707C128.744 205.925 128.316 207.113 127.502 208.021ZM156.819 194.094C149.909 181.068 139.582 170.169 126.946 162.567C114.31 154.966 99.8426 150.95 85.0971 150.95C70.3515 150.95 55.8846 154.966 43.2489 162.567C30.6132 170.169 20.286 181.068 13.3762 194.094V88.0122C13.0702 78.4012 14.6988 68.8266 18.1654 59.8573C21.632 50.8881 26.8664 42.7071 33.5565 35.8003C40.2466 28.8935 48.2566 23.4019 57.1106 19.6515C65.9646 15.9011 75.4815 13.9684 85.0971 13.9684C94.7126 13.9684 104.23 15.9011 113.084 19.6515C121.938 23.4019 129.948 28.8935 136.638 35.8003C143.328 42.7071 148.562 50.8881 152.029 59.8573C155.495 68.8266 157.125 78.4012 156.819 88.0122V194.094Z" fill="url(#paint0_linear_214_18)"/>
<defs>
<linearGradient id="paint0_linear_214_18" x1="155.218" y1="15.8766" x2="-60.7701" y2="140.113" gradientUnits="userSpaceOnUse">
<stop offset="0.112" stop-color="#062140"/>
<stop offset="0.174" stop-color="#0B3849"/>
<stop offset="0.271" stop-color="#125756"/>
<stop offset="0.366" stop-color="#176D5F"/>
<stop offset="0.456" stop-color="#1A7A65"/>
<stop offset="0.539" stop-color="#1C7F67"/>
<stop offset="0.552" stop-color="#1C8067"/>
<stop offset="0.684" stop-color="#1B7D65"/>
<stop offset="0.763" stop-color="#197562"/>
<stop offset="0.827" stop-color="#16665C"/>
<stop offset="0.884" stop-color="#115254"/>
<stop offset="0.935" stop-color="#0B3849"/>
<stop offset="0.973" stop-color="#062140"/>
</linearGradient>
</defs>
</svg>
